<?xml version="1.0" encoding="UTF-8" standalone="no"?>
<!DOCTYPE svg PUBLIC "-//W3C//DTD SVG 1.1//EN" "http://www.w3.org/Graphics/SVG/1.1/DTD/svg11.dtd">
<svg version="1.1" xmlns="http://www.w3.org/2000/svg" xmlns:xlink="http://www.w3.org/1999/xlink" preserveAspectRatio="xMidYMid meet" viewBox="0 0 640 640" width="640" height="640"><defs><path d="M640 320C640 496.61 496.61 640 320 640C143.39 640 0 496.61 0 320C0 143.39 143.39 0 320 0C496.61 0 640 143.39 640 320Z" id="dkdOHyIoZ"></path><path d="M203.39 100C205.62 100 207.44 101.81 207.44 104.05C207.44 152.68 207.44 294.51 207.44 343.14C207.44 345.37 205.62 347.18 203.39 347.18C202.58 347.18 204.2 347.18 203.39 347.18C201.15 347.18 199.34 345.37 199.34 343.14C199.34 294.51 199.34 152.68 199.34 104.05C199.34 101.81 201.15 100 203.39 100C204.2 100 202.58 100 203.39 100Z" id="agjMYzDRC"></path><path d="M214.99 143.72C219.47 143.72 223.09 147.35 223.09 151.82C223.09 162.98 223.09 188.36 223.09 199.52C223.09 203.99 219.47 207.62 214.99 207.62C208.73 207.62 198.04 207.62 191.78 207.62C187.31 207.62 183.68 203.99 183.68 199.52C183.68 188.36 183.68 162.98 183.68 151.82C183.68 147.35 187.31 143.72 191.78 143.72C198.04 143.72 208.73 143.72 214.99 143.72Z" id="e2k68HzjsS"></path><path d="M245.5 100C247.73 100 249.55 101.81 249.55 104.05C249.55 152.68 249.55 294.51 249.55 343.14C249.55 345.37 247.73 347.18 245.5 347.18C244.69 347.18 246.31 347.18 245.5 347.18C243.26 347.18 241.45 345.37 241.45 343.14C241.45 294.51 241.45 152.68 241.45 104.05C241.45 101.81 243.26 100 245.5 100C246.31 100 244.69 100 245.5 100Z" id="a2Hi80w4D"></path><path d="M257.1 175.67C261.58 175.67 265.2 179.29 265.2 183.77C265.2 194.93 265.2 220.31 265.2 231.47C265.2 235.94 261.58 239.57 257.1 239.57C250.84 239.57 240.15 239.57 233.89 239.57C229.42 239.57 225.79 235.94 225.79 231.47C225.79 220.31 225.79 194.93 225.79 183.77C225.79 179.29 229.42 175.67 233.89 175.67C240.15 175.67 250.84 175.67 257.1 175.67Z" id="hpKkTUVc4"></path><path d="M161.28 100C163.51 100 165.33 101.81 165.33 104.05C165.33 152.68 165.33 294.51 165.33 343.14C165.33 345.37 163.51 347.18 161.28 347.18C160.47 347.18 162.09 347.18 161.28 347.18C159.04 347.18 157.23 345.37 157.23 343.14C157.23 294.51 157.23 152.68 157.23 104.05C157.23 101.81 159.04 100 161.28 100C162.09 100 160.47 100 161.28 100Z" id="buf0gSmwT"></path><path d="M172.88 177.91C177.36 177.91 180.98 181.54 180.98 186.01C180.98 197.17 180.98 222.55 180.98 233.71C180.98 238.18 177.36 241.81 172.88 241.81C166.62 241.81 155.93 241.81 149.67 241.81C145.2 241.81 141.57 238.18 141.57 233.71C141.57 222.55 141.57 197.17 141.57 186.01C141.57 181.54 145.2 177.91 149.67 177.91C155.93 177.91 166.62 177.91 172.88 177.91Z" id="eiX5ImsVz"></path><path d="M119.71 100C121.94 100 123.75 101.81 123.75 104.05C123.75 152.68 123.75 294.51 123.75 343.14C123.75 345.37 121.94 347.18 119.71 347.18C118.9 347.18 120.52 347.18 119.71 347.18C117.47 347.18 115.66 345.37 115.66 343.14C115.66 294.51 115.66 152.68 115.66 104.05C115.66 101.81 117.47 100 119.71 100C120.52 100 118.9 100 119.71 100Z" id="a5WvxCkj"></path><path d="M131.31 125.78C135.79 125.78 139.41 129.41 139.41 133.88C139.41 145.04 139.41 170.42 139.41 181.58C139.41 186.06 135.79 189.68 131.31 189.68C125.05 189.68 114.36 189.68 108.1 189.68C103.63 189.68 100 186.06 100 181.58C100 170.42 100 145.04 100 133.88C100 129.41 103.63 125.78 108.1 125.78C114.36 125.78 125.05 125.78 131.31 125.78Z" id="bpIqtx1kk"></path><path d="M422.31 201.73L540 201.73L540 366.8L422.31 366.8L422.31 201.73Z" id="anwBq63H6"></path><path d="M422.31 201.73L540 201.73L540 217.71L422.31 217.71L422.31 201.73Z" id="a7dKwJEG9V"></path><path d="M422.31 217.71L439.04 217.71L439.04 366.8L422.31 366.8L422.31 217.71Z" id="e8b7D4FFjf"></path><path d="M294.36 374.93L412.05 374.93L412.05 540L294.36 540L294.36 374.93Z" id="a7fdTMp0YF"></path><path d="M294.36 374.93L412.05 374.93L412.05 390.9L294.36 390.9L294.36 374.93Z" id="adFpujfqQ"></path><path d="M294.36 390.9L311.09 390.9L311.09 540L294.36 540L294.36 390.9Z" id="a3QL6cnMRs"></path><path d="M422.31 374.93L540 374.93L540 540L422.31 540L422.31 374.93Z" id="h2ICRBsIEj"></path><path d="M422.31 374.93L540 374.93L540 390.9L422.31 390.9L422.31 374.93Z" id="a37JAF95tr"></path><path d="M422.31 390.9L439.04 390.9L439.04 540L422.31 540L422.31 390.9Z" id="dshTW6tBQ"></path><path d="M419.07 154.93L188 474.42" id="a1JMw1afaj"></path></defs><g><g><g><use xlink:href="#dkdOHyIoZ" opacity="1" fill="#ffffff" fill-opacity="1"></use></g><g><use xlink:href="#agjMYzDRC" opacity="1" fill="#000000" fill-opacity="1"></use><g><use xlink:href="#agjMYzDRC" opacity="1" fill-opacity="0" stroke="#ffffff" stroke-width="1" stroke-opacity="1"></use></g></g><g><use xlink:href="#e2k68HzjsS" opacity="1" fill="#645d60" fill-opacity="1"></use><g><use xlink:href="#e2k68HzjsS" opacity="1" fill-opacity="0" stroke="#1f1f1f" stroke-width="1" stroke-opacity="1"></use></g></g><g><use xlink:href="#a2Hi80w4D" opacity="1" fill="#000000" fill-opacity="1"></use><g><use xlink:href="#a2Hi80w4D" opacity="1" fill-opacity="0" stroke="#ffffff" stroke-width="1" stroke-opacity="1"></use></g></g><g><use xlink:href="#hpKkTUVc4" opacity="1" fill="#645d60" fill-opacity="1"></use><g><use xlink:href="#hpKkTUVc4" opacity="1" fill-opacity="0" stroke="#1f1f1f" stroke-width="1" stroke-opacity="1"></use></g></g><g><use xlink:href="#buf0gSmwT" opacity="1" fill="#000000" fill-opacity="1"></use><g><use xlink:href="#buf0gSmwT" opacity="1" fill-opacity="0" stroke="#ffffff" stroke-width="1" stroke-opacity="1"></use></g></g><g><use xlink:href="#eiX5ImsVz" opacity="1" fill="#645d60" fill-opacity="1"></use><g><use xlink:href="#eiX5ImsVz" opacity="1" fill-opacity="0" stroke="#1f1f1f" stroke-width="1" stroke-opacity="1"></use></g></g><g><use xlink:href="#a5WvxCkj" opacity="1" fill="#000000" fill-opacity="1"></use><g><use xlink:href="#a5WvxCkj" opacity="1" fill-opacity="0" stroke="#ffffff" stroke-width="1" stroke-opacity="1"></use></g></g><g><use xlink:href="#bpIqtx1kk" opacity="1" fill="#645d60" fill-opacity="1"></use><g><use xlink:href="#bpIqtx1kk" opacity="1" fill-opacity="0" stroke="#1f1f1f" stroke-width="1" stroke-opacity="1"></use></g></g><g><use xlink:href="#anwBq63H6" opacity="1" fill="#ffffff" fill-opacity="1"></use><g><use xlink:href="#anwBq63H6" opacity="1" fill-opacity="0" stroke="#000000" stroke-width="1" stroke-opacity="1"></use></g></g><g><use xlink:href="#a7dKwJEG9V" opacity="1" fill="#777799" fill-opacity="1"></use><g><use xlink:href="#a7dKwJEG9V" opacity="1" fill-opacity="0" stroke="#000000" stroke-width="1" stroke-opacity="1"></use></g></g><g><use xlink:href="#e8b7D4FFjf" opacity="1" fill="#eeeeff" fill-opacity="1"></use><g><use xlink:href="#e8b7D4FFjf" opacity="1" fill-opacity="0" stroke="#000000" stroke-width="1" stroke-opacity="1"></use></g></g><g><use xlink:href="#a7fdTMp0YF" opacity="1" fill="#ffffff" fill-opacity="1"></use><g><use xlink:href="#a7fdTMp0YF" opacity="1" fill-opacity="0" stroke="#000000" stroke-width="1" stroke-opacity="1"></use></g></g><g><use xlink:href="#adFpujfqQ" opacity="1" fill="#777799" fill-opacity="1"></use><g><use xlink:href="#adFpujfqQ" opacity="1" fill-opacity="0" stroke="#000000" stroke-width="1" stroke-opacity="1"></use></g></g><g><use xlink:href="#a3QL6cnMRs" opacity="1" fill="#eeeeff" fill-opacity="1"></use><g><use xlink:href="#a3QL6cnMRs" opacity="1" fill-opacity="0" stroke="#000000" stroke-width="1" stroke-opacity="1"></use></g></g><g><use xlink:href="#h2ICRBsIEj" opacity="1" fill="#ffffff" fill-opacity="1"></use><g><use xlink:href="#h2ICRBsIEj" opacity="1" fill-opacity="0" stroke="#000000" stroke-width="1" stroke-opacity="1"></use></g></g><g><use xlink:href="#a37JAF95tr" opacity="1" fill="#777799" fill-opacity="1"></use><g><use xlink:href="#a37JAF95tr" opacity="1" fill-opacity="0" stroke="#000000" stroke-width="1" stroke-opacity="1"></use></g></g><g><use xlink:href="#dshTW6tBQ" opacity="1" fill="#eeeeff" fill-opacity="1"></use><g><use xlink:href="#dshTW6tBQ" opacity="1" fill-opacity="0" stroke="#000000" stroke-width="1" stroke-opacity="1"></use></g></g><g><g><use xlink:href="#a1JMw1afaj" opacity="1" fill-opacity="0" stroke="#070714" stroke-width="5" stroke-opacity="1"></use></g></g></g></g></svg>