<?xml version="1.0" encoding="UTF-8" standalone="no"?>
<!DOCTYPE svg PUBLIC "-//W3C//DTD SVG 1.1//EN" "http://www.w3.org/Graphics/SVG/1.1/DTD/svg11.dtd">
<svg version="1.1" xmlns="http://www.w3.org/2000/svg" xmlns:xlink="http://www.w3.org/1999/xlink" preserveAspectRatio="xMidYMid meet" viewBox="0 0 640 640" width="512" height="512"><defs><path d="M150.38 11.78C153.63 11.78 156.27 14.42 156.27 17.67C156.27 85.75 156.27 284.11 156.27 352.2C156.27 355.45 153.63 358.09 150.38 358.09C149.2 358.09 151.56 358.09 150.38 358.09C147.13 358.09 144.49 355.45 144.49 352.2C144.49 284.11 144.49 85.75 144.49 17.67C144.49 14.42 147.13 11.78 150.38 11.78C151.56 11.78 149.2 11.78 150.38 11.78Z" id="b1DX1lUYl"></path><path d="M167.26 73.03C173.77 73.03 179.04 78.3 179.04 84.81C179.04 100.36 179.04 135.22 179.04 150.77C179.04 157.28 173.77 162.55 167.26 162.55C158.15 162.55 142.61 162.55 133.5 162.55C126.99 162.55 121.72 157.28 121.72 150.77C121.72 135.22 121.72 100.36 121.72 84.81C121.72 78.3 126.99 73.03 133.5 73.03C142.61 73.03 158.15 73.03 167.26 73.03Z" id="dQmFOi9li"></path><path d="M211.63 11.78C214.88 11.78 217.52 14.42 217.52 17.67C217.52 85.75 217.52 284.11 217.52 352.2C217.52 355.45 214.88 358.09 211.63 358.09C210.45 358.09 212.81 358.09 211.63 358.09C208.38 358.09 205.74 355.45 205.74 352.2C205.74 284.11 205.74 85.75 205.74 17.67C205.74 14.42 208.38 11.78 211.63 11.78C212.81 11.78 210.45 11.78 211.63 11.78Z" id="cLJc4sK2B"></path><path d="M228.52 117.79C235.02 117.79 240.29 123.07 240.29 129.57C240.29 145.12 240.29 179.99 240.29 195.53C240.29 202.04 235.02 207.31 228.52 207.31C219.41 207.31 203.86 207.31 194.75 207.31C188.24 207.31 182.97 202.04 182.97 195.53C182.97 179.99 182.97 145.12 182.97 129.57C182.97 123.07 188.24 117.79 194.75 117.79C203.86 117.79 219.41 117.79 228.52 117.79Z" id="a53qqwpZOU"></path><path d="M89.13 11.78C92.38 11.78 95.02 14.42 95.02 17.67C95.02 85.75 95.02 284.11 95.02 352.2C95.02 355.45 92.38 358.09 89.13 358.09C87.95 358.09 90.31 358.09 89.13 358.09C85.88 358.09 83.24 355.45 83.24 352.2C83.24 284.11 83.24 85.75 83.24 17.67C83.24 14.42 85.88 11.78 89.13 11.78C90.31 11.78 87.95 11.78 89.13 11.78Z" id="abeNObeNxT"></path><path d="M106.01 120.93C112.52 120.93 117.79 126.21 117.79 132.71C117.79 148.26 117.79 183.13 117.79 198.67C117.79 205.18 112.52 210.45 106.01 210.45C96.9 210.45 81.35 210.45 72.25 210.45C65.74 210.45 60.47 205.18 60.47 198.67C60.47 183.13 60.47 148.26 60.47 132.71C60.47 126.21 65.74 120.93 72.25 120.93C81.35 120.93 96.9 120.93 106.01 120.93Z" id="b32w2tFpZF"></path><path d="M28.66 11.78C31.92 11.78 34.55 14.42 34.55 17.67C34.55 85.75 34.55 284.11 34.55 352.2C34.55 355.45 31.92 358.09 28.66 358.09C27.48 358.09 29.84 358.09 28.66 358.09C25.41 358.09 22.77 355.45 22.77 352.2C22.77 284.11 22.77 85.75 22.77 17.67C22.77 14.42 25.41 11.78 28.66 11.78C29.84 11.78 27.48 11.78 28.66 11.78Z" id="a2Je1eqB88"></path><path d="M45.55 47.9C52.05 47.9 57.33 53.18 57.33 59.68C57.33 75.23 57.33 110.1 57.33 125.64C57.33 132.15 52.05 137.42 45.55 137.42C36.44 137.42 20.89 137.42 11.78 137.42C5.27 137.42 0 132.15 0 125.64C0 110.1 0 75.23 0 59.68C0 53.18 5.27 47.9 11.78 47.9C20.89 47.9 36.44 47.9 45.55 47.9Z" id="exXdQTjRm"></path><path d="M468.81 154.31L640 154.31L640 385.57L468.81 385.57L468.81 154.31Z" id="h4ymc51lNe"></path><path d="M468.81 154.31L640 154.31L640 176.69L468.81 176.69L468.81 154.31Z" id="e5lonOk1j"></path><path d="M468.81 176.69L493.15 176.69L493.15 385.57L468.81 385.57L468.81 176.69Z" id="b8xCO2xB8"></path><path d="M282.7 396.96L453.89 396.96L453.89 628.22L282.7 628.22L282.7 396.96Z" id="bIg5AC0JR"></path><path d="M282.7 396.96L453.89 396.96L453.89 419.34L282.7 419.34L282.7 396.96Z" id="c3L3CBnB"></path><path d="M282.7 419.34L307.04 419.34L307.04 628.22L282.7 628.22L282.7 419.34Z" id="a6mdkihKz"></path><path d="M468.81 396.96L640 396.96L640 628.22L468.81 628.22L468.81 396.96Z" id="lz4oj4ZqH"></path><path d="M468.81 396.96L640 396.96L640 419.34L468.81 419.34L468.81 396.96Z" id="a3Vi5RMFvr"></path><path d="M468.81 419.34L493.15 419.34L493.15 628.22L468.81 628.22L468.81 419.34Z" id="f2m3Pq2YpE"></path><path d="M464.1 88.74L128 536.34" id="c1uJ0oiYaw"></path></defs><g><g><g><use xlink:href="#b1DX1lUYl" opacity="1" fill="#000000" fill-opacity="1"></use></g><g><use xlink:href="#dQmFOi9li" opacity="1" fill="#645d60" fill-opacity="1"></use><g><use xlink:href="#dQmFOi9li" opacity="1" fill-opacity="0" stroke="#1f1f1f" stroke-width="1" stroke-opacity="1"></use></g></g><g><use xlink:href="#cLJc4sK2B" opacity="1" fill="#000000" fill-opacity="1"></use></g><g><use xlink:href="#a53qqwpZOU" opacity="1" fill="#645d60" fill-opacity="1"></use><g><use xlink:href="#a53qqwpZOU" opacity="1" fill-opacity="0" stroke="#1f1f1f" stroke-width="1" stroke-opacity="1"></use></g></g><g><use xlink:href="#abeNObeNxT" opacity="1" fill="#000000" fill-opacity="1"></use></g><g><use xlink:href="#b32w2tFpZF" opacity="1" fill="#645d60" fill-opacity="1"></use><g><use xlink:href="#b32w2tFpZF" opacity="1" fill-opacity="0" stroke="#1f1f1f" stroke-width="1" stroke-opacity="1"></use></g></g><g><use xlink:href="#a2Je1eqB88" opacity="1" fill="#000000" fill-opacity="1"></use></g><g><use xlink:href="#exXdQTjRm" opacity="1" fill="#645d60" fill-opacity="1"></use><g><use xlink:href="#exXdQTjRm" opacity="1" fill-opacity="0" stroke="#1f1f1f" stroke-width="1" stroke-opacity="1"></use></g></g><g><use xlink:href="#h4ymc51lNe" opacity="1" fill="#ffffff" fill-opacity="1"></use><g><use xlink:href="#h4ymc51lNe" opacity="1" fill-opacity="0" stroke="#000000" stroke-width="1" stroke-opacity="1"></use></g></g><g><use xlink:href="#e5lonOk1j" opacity="1" fill="#777799" fill-opacity="1"></use><g><use xlink:href="#e5lonOk1j" opacity="1" fill-opacity="0" stroke="#000000" stroke-width="1" stroke-opacity="1"></use></g></g><g><use xlink:href="#b8xCO2xB8" opacity="1" fill="#eeeeff" fill-opacity="1"></use><g><use xlink:href="#b8xCO2xB8" opacity="1" fill-opacity="0" stroke="#000000" stroke-width="1" stroke-opacity="1"></use></g></g><g><use xlink:href="#bIg5AC0JR" opacity="1" fill="#ffffff" fill-opacity="1"></use><g><use xlink:href="#bIg5AC0JR" opacity="1" fill-opacity="0" stroke="#000000" stroke-width="1" stroke-opacity="1"></use></g></g><g><use xlink:href="#c3L3CBnB" opacity="1" fill="#777799" fill-opacity="1"></use><g><use xlink:href="#c3L3CBnB" opacity="1" fill-opacity="0" stroke="#000000" stroke-width="1" stroke-opacity="1"></use></g></g><g><use xlink:href="#a6mdkihKz" opacity="1" fill="#eeeeff" fill-opacity="1"></use><g><use xlink:href="#a6mdkihKz" opacity="1" fill-opacity="0" stroke="#000000" stroke-width="1" stroke-opacity="1"></use></g></g><g><use xlink:href="#lz4oj4ZqH" opacity="1" fill="#ffffff" fill-opacity="1"></use><g><use xlink:href="#lz4oj4ZqH" opacity="1" fill-opacity="0" stroke="#000000" stroke-width="1" stroke-opacity="1"></use></g></g><g><use xlink:href="#a3Vi5RMFvr" opacity="1" fill="#777799" fill-opacity="1"></use><g><use xlink:href="#a3Vi5RMFvr" opacity="1" fill-opacity="0" stroke="#000000" stroke-width="1" stroke-opacity="1"></use></g></g><g><use xlink:href="#f2m3Pq2YpE" opacity="1" fill="#eeeeff" fill-opacity="1"></use><g><use xlink:href="#f2m3Pq2YpE" opacity="1" fill-opacity="0" stroke="#000000" stroke-width="1" stroke-opacity="1"></use></g></g><g><g><use xlink:href="#c1uJ0oiYaw" opacity="1" fill-opacity="0" stroke="#070714" stroke-width="5" stroke-opacity="1"></use></g></g></g></g></svg>